<?xml version='1.0' encoding='utf-8'?>
<svg xmlns="http://www.w3.org/2000/svg" viewBox="0 0 1100 1100">
  <defs>
    <style>.cls-1{fill:#8a4820;}.cls-2{fill:#e3c042;}</style>
  </defs>
  <title>Bitcoin</title>
  <g id="Layer_1">
    <path class="cls-1" d="M600,50C296.24,50,50,296.24,50,600s246.24,550,550,550,550-246.24,550-550S903.76,50,600,50Zm0,1050c-276.14,0-500-223.86-500-500S323.86,100,600,100s500,223.86,500,500S876.14,1100,600,1100Z" transform="translate(-50 -50)"/>
    <circle class="cls-2" cx="550" cy="550" r="500"/>
  </g>
  <g id="Layer_2">
    <path class="cls-1" d="M850,747.59q0-50.29-31.49-85.8T726.59,609Q830.13,576,830.13,466.1q0-74.37-51.35-112-39.39-28.84-100-35.56V220.87l-86.56-34.62V316.49H549.8V220.87l-86.56-34.62V318.3L350,320.71v73.55l64.66,26.2V827L350,853.25v73.55H463.24v87H549.8v-87h42.41v87h86.56V923.88Q850,904,850,747.59Zm-153.85-262q0,39.72-24.72,60t-72.06,20.29h-50.3V420.45h73.53q33,0,53.26,16.49T696.15,485.55ZM689.6,803.38q-23.88,19.44-68.68,19.44H549.07V656.72h50.3q58.73,0,86.42,22t27.69,68.9Q713.48,783.94,689.6,803.38Z" transform="translate(-50 -50)"/>
  </g>
</svg>
